<?xml version="1.0" standalone="no"?> <!DOCTYPE svg PUBLIC "-//W3C//DTD SVG 1.0//EN" "http://www.w3.org/TR/2001/REC-SVG-20010904/DTD/svg10.dtd" > <svg xmlns="http://www.w3.org/2000/svg" width="100%" height="100%">
<defs >
<font horiz-adv-x="541" ><font-face
    font-family="Jali Black"
    units-per-em="1000"
    panose-1="0 0 0 0 0 0 0 0 0 0"
    ascent="895"
    descent="-262"
    alphabetic="0" />
<missing-glyph horiz-adv-x="711" d="M661 -198H50V802H661V-198ZM101 751V-147H610V751H101ZM399 283V412H440V440H372V290L182 329V565H286V427L315 423V457Q315 524 338 554T413 585Q471 585 502 547T534 434Q534 279 422 279Q420 279 419 279L399 283ZM528
34H182V301L308 275V171H335V268L440 246V171H528V34Z" />
<glyph unicode=" " glyph-name="space" horiz-adv-x="171" />
<glyph unicode="!" glyph-name="exclam" horiz-adv-x="324" d="M248 232H75L50 655H278L248 232ZM162 -8Q47 -8 47 98Q47 198 161 198Q218 198 246 174T275 95Q275 41 246 17T162 -8Z" />
<glyph unicode="&quot;" glyph-name="quotedbl" horiz-adv-x="428" d="M180 436H34L23 752H194L180 436ZM391 436H245L234 752H405L391 436Z" />
<glyph unicode="#" glyph-name="numbersign" horiz-adv-x="545" d="M515 404V271H440L430 207H485V75H412L398 -20L268 -3L280 75H209L195 -20L65 -3L77 75H21V207H96L105 271H54V404H125L138 492L267 476L257 404H328L341 492L469 476L459 404H515ZM228 207H299L308
271H237L228 207Z" />
<glyph unicode="$" glyph-name="dollar" horiz-adv-x="504" d="M489 192Q489 116 448 67T333 -1L339 -92H188L194 -12Q144 -9 102 1T17 31L37 179Q136 144 206 144Q235 144 248 152T262 181Q262 201 245 215T171 259Q98 298 64 339T29 442Q29 515 79 569T226 637L223
735H374L366 636Q425 627 466 609L443 456Q410 468 374 474T307 481Q247 481 247 443Q247 425 261 414T316 384L359 363Q424 330 456 293T489 192Z" />
<glyph unicode="%" glyph-name="percent" horiz-adv-x="877" d="M669 589L303 -13L208 43L572 642L669 589ZM169 237Q94 237 51 287T7 432Q7 528 54 581T187 635Q268 635 309 587T351 446Q351 349 305 293T169 237ZM180 334Q193 334 198 355T203 442Q203 498 198
516T180 534Q165 534 160 516T155 448Q155 381 160 358T180 334ZM689 -10Q614 -10 571 40T527 185Q527 281 574 334T707 388Q788 388 829 340T871 199Q871 102 825 46T689 -10ZM700 87Q713 87 718 108T723 195Q723 251 718 269T700 287Q685 287 680 269T675 201Q675
134 680 111T700 87Z" />
<glyph unicode="&amp;" glyph-name="ampersand" horiz-adv-x="624" d="M514 -32L442 36Q365 -15 251 -15Q136 -15 79 34T22 165Q22 216 50 257T132 333Q101 367 86 400T70 473Q70 552 135 597T313 642Q387 642 461 625L449 481Q381 495 330 495Q275 495 275 457Q275
440 289 421T338 372Q389 326 430 287Q431 314 431 392L594 385Q581 252 551 173L637 92L514 -32ZM302 125Q322 125 342 130L235 230Q231 218 231 198Q231 163 250 144T302 125Z" />
<glyph unicode="&apos;" glyph-name="quotesingle" horiz-adv-x="227" d="M189 436H35L23 752H204L189 436Z" />
<glyph unicode="(" glyph-name="parenleft" horiz-adv-x="404" d="M226 -186Q137 -100 83 41T29 331Q29 480 84 611T241 847L376 746Q312 638 282 541T252 336Q252 213 282 110T366 -92L226 -186Z" />
<glyph unicode=")" glyph-name="parenright" horiz-adv-x="404" d="M37 -92Q92 5 122 109T152 336Q152 443 122 540T28 746L163 847Q265 743 320 612T375 331Q375 182 321 41T178 -186L37 -92Z" />
<glyph unicode="*" glyph-name="asterisk" horiz-adv-x="408" d="M358 671L399 549L307 520L360 445L259 372L204 447L149 374L48 446L101 522L10 550L50 671L141 642V732H268L270 642L358 671Z" />
<glyph unicode="+" glyph-name="plus" horiz-adv-x="554" d="M361 328H503V180H361V31H196V180H51V328H196V476H361V328Z" />
<glyph unicode="," glyph-name="comma" horiz-adv-x="290" d="M242 144Q247 115 247 48Q247 -34 206 -96T88 -214L3 -148Q38 -94 51 -53T64 40Q64 76 52 126L242 144Z" />
<glyph unicode="-" glyph-name="hyphen" horiz-adv-x="342" d="M303 193H40V345H303V193Z" />
<glyph unicode="." glyph-name="period" horiz-adv-x="314" d="M155 -8Q98 -8 67 22T36 113Q36 169 68 200T155 232Q214 232 245 203T277 113Q277 53 246 23T155 -8Z" />
<glyph unicode="/" glyph-name="slash" horiz-adv-x="375" d="M402 711L194 -134L3 -119L208 726L402 711Z" />
<glyph unicode="0" glyph-name="zero" horiz-adv-x="582" d="M287 -13Q153 -13 89 67T24 310Q24 476 96 559T300 642Q425 642 491 568T557 327Q557 226 526 150T435 30T287 -13ZM293 135Q307 135 314 145T326 193T330 310Q330 385 326 422T314 470T291 482Q275
482 267 469T256 419T252 307Q252 231 257 194T270 146T293 135Z" />
<glyph unicode="1" glyph-name="one" horiz-adv-x="517" d="M389 629V162H477V0H54V162H179L180 444L62 396L49 547L226 629H389Z" />
<glyph unicode="2" glyph-name="two" horiz-adv-x="519" d="M484 171V0H29L23 133Q105 212 105 212Q105 212 105 212Q105 212 104 211Q197 299 232 339T267 414Q267 474 196 474Q134 474 51 442L38 593Q143 642 254 642Q369 642 424 593T479 456Q479 382 432 317T289
167Q358 171 431 171H484Z" />
<glyph unicode="3" glyph-name="three" horiz-adv-x="516" d="M348 328Q418 310 450 272T482 176Q482 129 451 86T353 15T187 -13Q137 -13 100 -7T17 12L31 158Q103 143 168 143Q221 143 238 157T256 197Q256 208 253 216T239 233Q228 243 204 245T133 248H75L78
380L121 379Q192 379 219 391Q247 404 247 437Q247 462 231 473T180 484Q152 484 125 480T52 464L43 607Q133 642 230 642Q344 642 403 600T462 488Q462 375 348 328Z" />
<glyph unicode="4" glyph-name="four" d="M517 238V81H469V0H280V81H21L16 228L199 629H423L277 360Q236 285 207 238H280V308L469 330V238H517Z" />
<glyph unicode="5" glyph-name="five" horiz-adv-x="514" d="M286 395Q377 395 427 358T478 227Q478 86 386 38T151 -11Q88 -11 32 -3L41 133Q94 128 126 128Q189 128 220 144T251 202Q251 238 234 254T169 270Q142 270 117 268T64 261L42 346L64 629H469L454
466H243L242 456Q241 438 235 393Q267 395 286 395Z" />
<glyph unicode="6" glyph-name="six" horiz-adv-x="544" d="M329 384Q517 384 517 212Q517 150 486 99T401 17T279 -13Q159 -13 93 57T27 270Q27 471 129 555T385 639Q428 639 470 633L474 481H437Q372 481 333 473T271 441T240 374Q283 384 329 384ZM273 125Q293
125 301 143T309 200Q309 240 298 252T260 265Q252 265 234 263Q235 209 237 181T248 139T273 125Z" />
<glyph unicode="7" glyph-name="seven" horiz-adv-x="492" d="M450 629L464 477Q414 346 377 236T305 0H69Q140 208 285 455H25V629H450Z" />
<glyph unicode="8" glyph-name="eight" horiz-adv-x="570" d="M430 322Q482 289 511 254T540 167Q540 111 505 70T410 8T279 -13Q169 -13 100 33T30 161Q30 208 58 247T139 316Q99 347 78 382T56 466Q56 519 87 558T172 620T295 642Q395 642 456 598T518 471Q518
423 495 386T430 322ZM290 518Q275 518 264 507T253 475Q253 454 263 438T300 402Q330 430 330 465Q330 491 320 504T290 518ZM280 115Q304 115 317 125T330 155Q330 174 316 192T269 231Q230 194 230 160Q230 115 280 115Z" />
<glyph unicode="9" glyph-name="nine" horiz-adv-x="558" d="M275 642Q401 642 463 568T526 354Q526 158 412 75T94 -8Q86 -8 79 -8L77 139Q160 140 203 147T271 174T305 237Q273 230 225 230Q128 230 79 279T29 420Q29 528 98 585T275 642ZM284 351Q292 351 314
353V367Q314 428 309 458T296 497T274 506Q255 506 246 488T237 433Q237 385 247 368T284 351Z" />
<glyph unicode=":" glyph-name="colon" horiz-adv-x="283" d="M142 314Q36 314 36 419Q36 467 65 495T142 523Q193 523 219 497T246 419Q246 314 142 314ZM142 -8Q36 -8 36 98Q36 145 64 172T142 199Q246 199 246 98Q246 -8 142 -8Z" />
<glyph unicode=";" glyph-name="semicolon" horiz-adv-x="321" d="M178 294Q74 294 74 398Q74 446 102 474T178 502Q229 502 256 476T284 398Q284 294 178 294ZM255 144Q260 115 260 48Q260 -34 219 -96T101 -214L16 -148Q51 -94 64 -53T77 40Q77 76 65 126L255 144Z" />
<glyph unicode="&lt;" glyph-name="less" horiz-adv-x="540" d="M71 352L470 509V369L219 275L470 173V28L71 200V352Z" />
<glyph unicode="=" glyph-name="equal" horiz-adv-x="560" d="M507 280H54V433H507V280ZM507 69H54V222H507V69Z" />
<glyph unicode="&gt;" glyph-name="greater" horiz-adv-x="534" d="M70 369V509L469 352V200L70 28V173L321 275L70 369Z" />
<glyph unicode="?" glyph-name="question" horiz-adv-x="476" d="M134 232Q132 245 132 261Q132 311 168 361Q176 372 194 395Q213 417 221 432T230 465Q230 507 172 507Q123 507 45 476L23 612Q131 664 238 664Q461 664 461 511Q461 461 437 421T373 337L352
313Q315 267 307 230L134 232ZM219 -8Q162 -8 132 17T102 97Q102 148 132 173T219 198Q275 198 303 174T332 97Q332 42 304 17T219 -8Z" />
<glyph unicode="@" glyph-name="at" horiz-adv-x="940" d="M504 447Q595 447 680 417V104Q726 107 746 145T766 266Q766 383 699 455T491 528Q344 528 259 446T174 212Q174 120 209 53T309 -49T458 -84Q509 -84 550 -77T634 -55L660 -151Q558 -192 436 -192Q323
-192 232 -145T89 -10T37 198Q37 325 92 426T252 584T496 642Q605 642 698 602T847 481T903 287Q903 -7 613 -7Q561 -7 522 3L514 35Q470 2 416 2Q333 2 288 54T242 208Q242 316 307 381T504 447ZM433 226Q433 177 441 161T477 144Q485 144 499 146V332H493Q459
332 446 310T433 226Z" />
<glyph unicode="A" glyph-name="A" horiz-adv-x="615" d="M618 0H391L373 97H246L230 0H-3L183 629H437L618 0ZM306 458L272 250H345L306 458Z" />
<glyph unicode="B" glyph-name="B" horiz-adv-x="586" d="M476 322Q577 283 577 182Q577 86 507 38T269 -10Q194 -10 146 -8T43 0V629Q178 636 275 636Q420 636 486 592T553 455Q553 363 476 322ZM334 442Q334 482 321 496T270 510H256V372H261Q292 372 307 378T328
398T334 442ZM277 114Q322 114 336 133T351 198Q351 239 334 253T280 268Q275 268 270 268Q261 268 256 267V114H277Z" />
<glyph unicode="C" glyph-name="C" horiz-adv-x="511" d="M321 -13Q231 -13 163 23T58 130T21 298Q21 399 61 477T172 599T335 642Q381 642 417 636T496 615L479 464Q421 478 372 478Q311 478 282 441T253 315Q253 225 279 185T368 144Q418 144 480 163L498 23Q427
-13 321 -13Z" />
<glyph unicode="D" glyph-name="D" horiz-adv-x="637" d="M297 636Q406 636 475 606T580 508T616 323Q616 159 537 77T289 -6Q187 -6 43 0V629Q179 636 297 636ZM287 133Q326 133 346 148T374 201T383 313Q383 389 376 427T349 479T290 494Q270 494 261 493V133H287Z" />
<glyph unicode="E" glyph-name="E" horiz-adv-x="485" d="M255 153H461L464 0H43V629H463L455 476H255V392H430V242H255V153Z" />
<glyph unicode="F" glyph-name="F" horiz-adv-x="479" d="M467 629L458 476H255V372H434V220H255V0H43V629H467Z" />
<glyph unicode="G" glyph-name="G" horiz-adv-x="614" d="M576 360V2L550 -1Q438 -13 371 -13Q195 -13 108 60T21 298Q21 407 67 484T194 602T376 642Q427 642 467 635T552 615L535 466Q504 471 473 474T411 478Q355 478 321 464T269 413T251 311Q251 238 261
202T293 152T360 138Q378 138 387 139V226L327 223V360H576Z" />
<glyph unicode="H" glyph-name="H" horiz-adv-x="659" d="M399 406V629H616V0H399V237L262 236V0H43V629H262V406H399Z" />
<glyph unicode="I" glyph-name="I" horiz-adv-x="389" d="M356 629V507H305V120H356V0H33L34 120H86V507H33L34 629H356Z" />
<glyph unicode="J" glyph-name="J" horiz-adv-x="391" d="M347 629L348 232Q348 93 288 40T114 -13Q64 -13 -4 3L8 156Q54 146 77 146Q110 146 121 162T133 220V346Q133 452 136 503H54V629H347Z" />
<glyph unicode="K" glyph-name="K" horiz-adv-x="604" d="M604 0H342L261 231V0H43V629H261V399L348 629H596L484 438Q455 390 411 331L604 0Z" />
<glyph unicode="L" glyph-name="L" horiz-adv-x="467" d="M262 154H449L453 0H43V629H262V154Z" />
<glyph unicode="M" glyph-name="M" horiz-adv-x="789" d="M767 0H574L575 401L478 58H313L214 400L220 0H22L51 629H316L388 351Q402 292 407 267L501 629H750L767 0Z" />
<glyph unicode="N" glyph-name="N" horiz-adv-x="645" d="M422 629H602V0H379L277 229Q244 304 222 372V0H43V629H272L371 401Q399 336 422 268V629Z" />
<glyph unicode="O" glyph-name="O" horiz-adv-x="650" d="M327 -13Q173 -13 97 73T21 316Q21 418 60 491T170 603T336 642Q478 642 553 559T629 323Q629 222 593 146T489 29T327 -13ZM330 136Q352 136 365 149T387 202T395 320Q395 409 380 443T328 477Q296 477
278 445T259 317Q259 240 267 201T291 149T330 136Z" />
<glyph unicode="P" glyph-name="P" horiz-adv-x="573" d="M268 635Q383 635 446 608T532 534T555 421Q555 318 492 253T298 187H259V0H43V629Q179 635 268 635ZM272 312Q293 312 304 319T319 345T324 405Q324 463 313 483T273 503H259V312H272Z" />
<glyph unicode="Q" glyph-name="Q" horiz-adv-x="650" d="M629 323Q629 217 590 140T478 22L625 17L605 -143Q416 -103 268 -10L269 -9Q144 6 83 90T21 316Q21 418 60 491T170 603T336 642Q478 642 553 559T629 323ZM328 477Q295 477 277 445T259 317Q259 240
267 201T289 149T328 136Q351 136 365 149T387 202T395 320Q395 409 380 443T328 477Z" />
<glyph unicode="R" glyph-name="R" horiz-adv-x="594" d="M357 0L279 224Q272 223 259 223V0H43V629Q163 634 275 634Q424 634 494 590T565 441Q565 311 466 258Q504 196 519 167L598 0H357ZM259 347Q279 347 288 348Q315 349 326 367T337 422Q337 467 327 484T281
502H259V347Z" />
<glyph unicode="S" glyph-name="S" horiz-adv-x="504" d="M231 -13Q168 -13 118 -2T17 31L37 179Q136 144 206 144Q235 144 248 152T262 181Q262 201 245 215T171 259Q98 298 64 339T29 442Q29 497 58 542T146 615T291 642Q339 642 384 633T466 609L443 456Q410
468 374 474T307 481Q247 481 247 443Q247 425 261 414T316 384L359 363Q424 330 456 293T489 192Q489 92 420 40T231 -13Z" />
<glyph unicode="T" glyph-name="T" horiz-adv-x="500" d="M4 629H496L490 475H359V0H140V475H11L4 629Z" />
<glyph unicode="U" glyph-name="U" horiz-adv-x="606" d="M304 -13Q166 -13 100 56T34 253V629H252V225Q252 179 263 161T304 143Q332 143 343 160T355 217V629H572V254Q572 123 504 55T304 -13Z" />
<glyph unicode="V" glyph-name="V" horiz-adv-x="573" d="M289 212L371 629H579L399 0H164L-6 629H220L289 212Z" />
<glyph unicode="W" glyph-name="W" horiz-adv-x="833" d="M641 629H835L713 0H471L437 234Q429 286 418 384L347 0H114L-2 629H197L227 330Q234 267 238 212L318 629H524L562 379L585 213L641 629Z" />
<glyph unicode="X" glyph-name="X" horiz-adv-x="589" d="M361 629H591L428 336L584 0H355L299 211L238 0H-2L169 321L13 629H252L304 431L361 629Z" />
<glyph unicode="Y" glyph-name="Y" horiz-adv-x="558" d="M343 629H566L384 233V0H166V234L-8 629H225L280 415L343 629Z" />
<glyph unicode="Z" glyph-name="Z" horiz-adv-x="533" d="M513 629L512 493L275 155Q327 157 350 157H507V0H20L16 131L273 475Q248 474 201 474H40V629H513Z" />
<glyph unicode="[" glyph-name="bracketleft" horiz-adv-x="362" d="M239 680L241 -59L342 -56V-204H30L32 825H334V677L239 680Z" />
<glyph unicode="\" glyph-name="backslash" horiz-adv-x="375" d="M372 -118L181 -133L-27 712L167 727L372 -118Z" />
<glyph unicode="]" glyph-name="bracketright" horiz-adv-x="367" d="M334 825L336 -204H24V-56L125 -59L127 680L32 677V825H334Z" />
<glyph unicode="^" glyph-name="asciicircum" horiz-adv-x="430" d="M321 629L435 374H290L212 514L128 374H-12L107 629H321Z" />
<glyph unicode="_" glyph-name="underscore" horiz-adv-x="455" d="M455 -175H0V-25H455V-175Z" />
<glyph unicode="`" glyph-name="grave" horiz-adv-x="510" d="M268 519H132L45 670H226L268 519Z" />
<glyph unicode="a" glyph-name="a" horiz-adv-x="524" d="M277 510Q359 510 406 485T474 408T495 272V0L329 -13L308 32Q240 -13 160 -13Q95 -13 56 24T17 128Q17 198 62 235T189 288Q223 294 280 301V310Q280 337 266 351T215 366Q181 366 147 361T63 344L54
473Q165 510 277 510ZM211 148Q211 124 221 115T254 105Q268 105 280 109V204Q242 201 227 188T211 148Z" />
<glyph unicode="b" glyph-name="b" horiz-adv-x="561" d="M373 510Q448 510 492 442T537 251Q537 127 469 57T257 -13Q146 -13 33 14V680L244 691V528Q244 488 238 424Q300 510 373 510ZM301 118Q319 132 319 224Q319 283 311 309T281 335Q261 335 244 321V110Q249
109 258 109Q289 109 301 118Z" />
<glyph unicode="c" glyph-name="c" horiz-adv-x="444" d="M260 -13Q24 -13 24 243Q24 327 59 387T156 478T300 510Q352 510 417 496L407 345L386 348Q352 352 332 352Q287 352 267 327T246 247Q246 197 265 175T324 152Q361 152 407 163L425 25Q346 -13 260 -13Z" />
<glyph unicode="d" glyph-name="d" horiz-adv-x="569" d="M323 680L536 691V0L368 -13L349 33Q295 -13 224 -13Q167 -13 122 14T51 97T24 233Q24 318 57 381T150 477T286 510Q311 510 323 509V680ZM246 253Q246 207 250 183T264 149T293 139Q306 139 323 144V389H320Q291
389 276 377T253 336T246 253Z" />
<glyph unicode="e" glyph-name="e" horiz-adv-x="531" d="M247 195Q247 193 247 192Q247 160 267 147T346 134Q372 134 405 137T476 146L486 15Q431 0 391 -6T295 -13Q159 -13 92 56T24 250Q24 328 57 387T150 478T285 510Q388 510 447 454T507 296Q507 248 498
196L247 195ZM271 387Q253 387 245 372T237 327Q237 318 239 294L300 295Q304 327 304 340Q304 362 297 374T271 387Z" />
<glyph unicode="f" glyph-name="f" horiz-adv-x="401" d="M330 559Q301 559 291 545T280 499H389L388 363H280V0H69V363H6V499H70Q81 702 282 702Q333 702 397 684L389 553Q382 554 365 556T330 559Z" />
<glyph unicode="g" glyph-name="g" horiz-adv-x="557" d="M313 77Q406 64 453 47T519 5T537 -62Q537 -119 497 -163T387 -231T234 -255Q118 -255 57 -220T-5 -125Q-5 -59 91 -12Q58 13 58 51Q58 79 73 101T121 144Q70 168 44 211T18 307Q18 362 46 408T130 482T264
510Q310 510 351 498L545 538L547 393L466 399Q501 357 501 299Q501 218 440 168T255 118Q236 118 226 119Q224 113 224 108Q224 96 242 90T313 77ZM266 394Q249 394 243 376T237 309Q237 268 242 252T261 235Q280 235 284 256T289 334Q289 366 285 380T266 394ZM266
-124Q297 -124 318 -116T339 -95Q339 -82 321 -77T262 -65L238 -61Q227 -60 212 -56Q201 -62 196 -71T190 -90Q190 -107 207 -115T266 -124Z" />
<glyph unicode="h" glyph-name="h" horiz-adv-x="553" d="M388 510Q451 510 486 471T521 364V0H305V310Q305 327 298 338T269 350Q255 350 243 346V0H33V680L243 691V540Q243 473 242 451Q274 480 311 495T388 510Z" />
<glyph unicode="i" glyph-name="i" horiz-adv-x="286" d="M251 0H35V499H251V0ZM149 543Q102 543 76 567T50 640Q50 684 76 709T149 734Q247 734 247 641Q247 591 222 567T149 543Z" />
<glyph unicode="j" glyph-name="j" horiz-adv-x="310" d="M-44 -82Q-2 -73 20 -61T50 -28T59 27V499H275V80Q275 -18 249 -82T159 -189T-20 -254L-44 -82ZM167 543Q120 543 94 567T68 640Q68 684 94 709T167 734Q265 734 265 641Q265 591 240 567T167 543Z" />
<glyph unicode="k" glyph-name="k" horiz-adv-x="562" d="M572 0H331L243 197V0H33V680L243 691V308L331 499H559L468 369Q434 319 398 277L572 0Z" />
<glyph unicode="l" glyph-name="l" horiz-adv-x="319" d="M193 -13Q110 -13 72 33T33 173V680L249 691V196Q249 177 254 170T273 162Q284 162 304 164L311 1Q277 -6 252 -9T193 -13Z" />
<glyph unicode="m" glyph-name="m" horiz-adv-x="819" d="M654 510Q715 510 751 472T787 360V0H571V310Q571 331 564 340T539 350Q529 350 520 347V0H304V310Q304 331 298 340T272 350Q265 350 253 348V0H37V342L36 423Q35 443 35 486L221 505L233 431Q304 510
387 510Q476 510 507 437Q575 510 654 510Z" />
<glyph unicode="n" glyph-name="n" horiz-adv-x="558" d="M393 510Q454 510 490 472T526 360V0H310V310Q310 350 280 350Q266 350 253 346V0H37V342L36 423Q35 443 35 486L221 505L233 435Q268 472 309 491T393 510Z" />
<glyph unicode="o" glyph-name="o" horiz-adv-x="578" d="M285 -13Q169 -13 97 52T24 246Q24 331 59 390T156 480T295 510Q412 510 483 448T554 257Q554 181 524 120T434 23T285 -13ZM291 118Q308 118 316 130T327 170T330 252Q330 322 321 347T290 372Q267 372
258 346T248 247Q248 196 251 169T264 130T291 118Z" />
<glyph unicode="p" glyph-name="p" horiz-adv-x="576" d="M386 510Q434 510 472 480T531 392T552 252Q552 168 521 108T433 18T303 -13Q272 -13 249 -9V-217H37V342L36 423Q35 443 35 486L220 505L232 426Q269 469 310 489T386 510ZM315 118Q325 125 329 149T334
224Q334 282 325 308T295 335Q272 335 249 319V111Q267 109 272 109Q290 109 298 110T315 118Z" />
<glyph unicode="q" glyph-name="q" horiz-adv-x="568" d="M311 510Q403 510 535 485V-217H321V13Q270 -13 217 -13Q163 -13 120 13T50 95T24 232Q24 363 98 436T311 510ZM300 139Q311 139 321 142V386H312Q287 386 273 375T253 334T246 251Q246 206 250 183T266
149T300 139Z" />
<glyph unicode="r" glyph-name="r" horiz-adv-x="413" d="M335 510Q354 510 367 505T397 491L393 296Q379 297 352 297Q297 297 253 279V0H37V342L36 421Q35 440 35 482L221 505L236 422Q258 463 283 486T335 510Z" />
<glyph unicode="s" glyph-name="s" horiz-adv-x="442" d="M204 -13Q86 -13 17 17L34 160Q74 145 114 138T183 130Q197 130 205 134T213 148Q213 158 203 165T165 186L138 199Q85 226 57 260T28 342Q28 422 88 466T258 510Q339 510 416 488L399 346Q319 365 269
365Q234 365 234 346Q234 338 243 332T278 315L308 301Q367 273 396 239T425 154Q425 71 363 29T204 -13Z" />
<glyph unicode="t" glyph-name="t" horiz-adv-x="393" d="M385 15Q326 -13 242 -13Q158 -13 114 24T69 145V360H6V499H69V629L282 643V499H372V360H282V183Q282 153 291 143T332 132Q353 132 375 135L385 15Z" />
<glyph unicode="u" glyph-name="u" horiz-adv-x="554" d="M305 499H521V0L347 -15L323 47Q292 15 256 1T187 -13Q105 -13 69 33T32 172V499H248V190Q248 168 253 159T271 150Q283 150 305 160V499Z" />
<glyph unicode="v" glyph-name="v" horiz-adv-x="575" d="M356 499H575L422 0H157L0 499H231L277 255Q290 182 295 144L356 499Z" />
<glyph unicode="w" glyph-name="w" horiz-adv-x="806" d="M586 499H806L689 0H463L396 262L324 0H109L0 499H227L241 193L321 499H488L546 243L555 199L586 499Z" />
<glyph unicode="x" glyph-name="x" horiz-adv-x="572" d="M578 0H360L295 163L222 0H-6L149 253L5 499H243L296 349L346 499H572L480 337Q461 304 452 288L432 255L578 0Z" />
<glyph unicode="y" glyph-name="y" horiz-adv-x="572" d="M346 499H572L445 95Q410 -16 364 -88T247 -202T73 -254L48 -78Q122 -65 168 -47T241 0H146L0 499H233L275 204Q283 155 286 124L346 499Z" />
<glyph unicode="z" glyph-name="z" horiz-adv-x="499" d="M483 147V0H26L20 121L229 357H27V499H463L469 381V380H468L306 187Q291 169 269 147H483Z" />
<glyph unicode="{" glyph-name="braceleft" horiz-adv-x="401" d="M321 9Q321 -27 334 -40T376 -64L358 -217Q238 -216 173 -168T102 -32L101 -6Q101 26 107 74Q108 83 110 104T112 142Q110 186 92 208T28 238V377Q76 384 93 402T110 465Q110 504 107 537Q105
577 105 596Q105 608 107 636Q111 721 176 774T359 828L378 671Q349 665 336 648T322 601Q322 593 322 585Q322 559 324 524Q326 478 326 448Q326 335 231 300Q326 266 326 154Q326 114 323 75Q321 29 321 9Z" />
<glyph unicode="|" glyph-name="bar" horiz-adv-x="247" d="M214 -220H33V775H214V-220Z" />
<glyph unicode="}" glyph-name="braceright" horiz-adv-x="404" d="M294 465Q294 421 311 403T376 377V238Q330 230 312 208T292 142Q292 112 297 75Q302 30 302 -10Q302 -21 302 -32Q297 -119 232 -167T46 -217L28 -64Q57 -54 70 -40T83 13Q83 43 82 67T80 108L78
150Q78 152 78 155Q78 266 173 300Q78 335 78 448Q78 478 80 524Q82 559 82 585Q82 593 82 601Q81 630 68 647T26 671L45 828Q163 828 228 775T297 636Q299 608 299 596Q299 577 297 537Q294 504 294 465Z" />
<glyph unicode="~" glyph-name="asciitilde" horiz-adv-x="504" d="M330 151Q310 151 291 158T241 181Q201 203 184 203Q168 203 151 188T112 141L20 208Q52 272 87 309T162 347Q182 347 200 340T245 318Q268 305 285 298T321 291Q338 291 352 305T391 354L485
290Q453 217 417 184T330 151Z" />
</font>
</defs>
</svg>
